# Blender 3.6.5
# www.blender.org
mtllib doorKnobLock.mtl
o Cube.009_Cube.010
v -9.009578 2.904083 -9.513386
v -9.009254 2.902103 -9.513844
v -9.007939 2.903600 -9.510732
v -9.009144 2.905290 -9.510343
v -9.007627 2.905205 -9.507113
v -8.999424 2.905165 -9.446278
v -8.999397 2.903656 -9.448674
v -9.015741 2.903786 -9.443469
v -9.013594 2.905877 -9.443737
v -9.013344 2.903635 -9.443322
v -9.015324 2.905478 -9.443690
v -9.022733 2.903776 -9.500775
v -9.020249 2.905297 -9.476496
v -9.020229 2.903762 -9.473413
v -9.022186 2.905135 -9.497583
v -9.001898 2.906618 -9.447529
v -9.000237 2.906188 -9.448236
v -9.001762 2.906407 -9.445765
v -9.000163 2.906017 -9.446107
v -9.003510 2.874440 -9.476776
v -9.006618 2.874135 -9.487706
v -9.006201 2.874649 -9.497167
v -9.020947 2.874817 -9.484592
v -9.022103 2.876467 -9.492331
v -9.022186 2.875221 -9.497581
v -9.020507 2.876535 -9.475749
v -9.013615 2.874688 -9.443714
v -9.015753 2.876474 -9.443451
v -9.015337 2.874993 -9.443672
v -9.013692 2.876474 -9.443307
v -8.999352 2.876389 -9.447813
v -8.999486 2.875086 -9.446456
v -8.999358 2.876461 -9.446044
v -9.009186 2.876353 -9.513250
v -9.009306 2.875083 -9.510593
v -9.007935 2.876323 -9.510433
v -9.010448 2.876084 -9.513705
v -9.006768 2.875198 -9.504252
v -9.010571 2.877866 -9.514747
v -9.010571 2.902100 -9.514747
v -9.020679 2.902100 -9.513577
v -9.021495 2.876088 -9.511969
v -9.021215 2.875099 -9.508932
v -9.021939 2.877863 -9.512377
v -9.022692 2.876514 -9.509024
v -9.022146 2.875161 -9.505432
v -9.018709 2.874187 -9.478397
v -9.020918 2.874506 -9.500401
v -9.013858 2.906446 -9.444499
v -9.014286 2.906687 -9.450329
v -9.016058 2.906172 -9.446409
v -9.015606 2.906001 -9.444326
v -9.021869 2.903784 -9.511788
v -9.020561 2.904096 -9.512535
v -9.021060 2.905311 -9.509236
v -9.022624 2.903795 -9.508746
v -9.022146 2.905205 -9.505432
v -9.001661 2.905690 -9.445008
v -8.999823 2.903663 -9.445323
v -9.001470 2.903615 -9.444721
v -9.000191 2.905457 -9.445445
v -9.001651 2.874842 -9.444986
v -8.999886 2.876526 -9.445261
v -9.000163 2.875011 -9.445436
v -9.001657 2.876269 -9.444702
v -9.020679 2.877866 -9.513577
v -9.018750 2.906544 -9.486250
v -9.019358 2.906180 -9.474955
v -9.021323 2.905897 -9.495439
v -9.015171 2.874389 -9.444281
v -9.016079 2.874459 -9.446290
v -9.013775 2.874079 -9.446619
v -9.003127 2.875093 -9.478459
v -9.004942 2.876453 -9.494304
v -9.002503 2.876354 -9.475439
v -9.017012 2.876170 -9.446127
v -9.016480 2.875097 -9.444489
v -9.016521 2.876495 -9.444059
v -9.000805 2.874227 -9.446033
v -9.007333 2.906405 -9.494046
v -9.007871 2.906016 -9.503886
v -9.004551 2.906630 -9.476204
v -9.016498 2.905170 -9.444299
v -9.017036 2.903604 -9.446011
v -9.004063 2.903940 -9.487908
v -9.004318 2.905741 -9.486625
v -9.022800 2.876475 -9.502711
v -9.008546 2.874577 -9.504377
v -9.006361 2.904740 -9.502968
v -9.020512 2.905976 -9.502769
v -8.999924 2.874582 -9.446387
v -9.006543 2.876467 -9.504587
vn -0.2634 0.7169 -0.6456
vn 0.1995 0.2466 -0.9484
vn 0.4146 0.6588 -0.6277
vn 0.7193 0.6564 -0.2276
vn 0.3540 0.9288 -0.1095
vn 0.3596 0.8838 -0.2995
vn 0.9081 0.3837 -0.1676
vn 0.8970 0.2885 -0.3348
vn -0.3626 0.9054 -0.2208
vn 0.9456 -0.0886 0.3129
vn 0.6711 0.0619 0.7388
vn 0.9132 0.3283 0.2413
vn 0.5296 0.7896 0.3099
vn 0.5948 0.8032 -0.0321
vn 0.5160 0.4208 0.7461
vn -0.1008 0.9947 0.0222
vn 0.2545 0.9664 -0.0355
vn 0.1339 0.9898 0.0492
vn 0.2397 -0.9215 0.3056
vn 0.4908 -0.8692 -0.0592
vn 0.1144 -0.9931 -0.0269
vn 0.4847 -0.8708 -0.0821
vn 0.1598 -0.9839 -0.0794
vn -0.9883 -0.1263 0.0857
vn -0.7970 -0.6025 0.0411
vn -0.9774 -0.2111 0.0108
vn 0.9868 -0.1112 -0.1176
vn 0.8961 -0.4041 0.1839
vn 0.9934 -0.0933 -0.0672
vn 0.9934 0.0872 -0.0745
vn 0.7417 -0.6495 -0.1676
vn 0.9754 -0.1091 -0.1917
vn 0.8794 -0.3594 -0.3122
vn 0.7536 0.1138 -0.6474
vn 0.2832 -0.2068 -0.9365
vn 0.6814 -0.4657 -0.5646
vn -0.3767 -0.2761 -0.8842
vn -0.4633 0.1885 -0.8659
vn -0.6495 -0.7589 -0.0460
vn -0.2416 -0.9702 -0.0175
vn -0.3428 -0.9218 -0.1809
vn 0.1295 -0.7468 -0.6523
vn -0.5130 -0.6965 -0.5016
vn -0.7286 -0.6821 0.0623
vn -0.4589 -0.8853 0.0753
vn -0.1894 -0.9818 0.0156
vn -0.0581 -0.9968 0.0551
vn -0.5204 0.8486 0.0950
vn -0.0802 0.9318 0.3541
vn 0.1720 0.9012 0.3978
vn 0.0026 0.5316 0.8470
vn -0.4036 0.8095 0.4265
vn -0.8485 -0.1372 -0.5110
vn -0.7736 0.4455 -0.4507
vn -0.5025 0.8643 0.0225
vn -0.8725 0.4864 0.0467
vn -0.7056 0.7072 -0.0445
vn 0.0340 0.0864 0.9957
vn 0.2145 0.4671 0.8578
vn 0.2281 0.0728 0.9709
vn 0.6053 -0.0979 0.7900
vn 0.2096 -0.1008 0.9726
vn -0.1458 0.9893 -0.0021
vn -0.1848 0.9811 -0.0572
vn -0.2372 -0.8928 0.3830
vn -0.2976 -0.4664 0.8330
vn 0.0294 -0.6220 0.7825
vn 0.9847 0.1127 -0.1325
vn 0.9822 -0.1268 -0.1383
vn -0.7600 -0.5007 0.4145
vn -0.9825 -0.1527 0.1065
vn -0.9798 0.0817 0.1827
vn -0.9777 -0.1409 0.1554
vn -0.8350 -0.0980 0.5415
vn 0.1229 0.9916 -0.0399
vn 0.7701 0.6290 -0.1061
vn -0.9884 0.1066 0.1082
vn -0.7881 0.3714 0.4908
vn -0.3824 0.0722 0.9212
vn 0.0276 -0.0999 0.9946
vn -0.3844 -0.1218 0.9151
vn -0.2546 0.4435 0.8593
vn -0.9849 0.1717 0.0224
vn -0.8998 0.4281 0.0840
vn -0.5363 0.8420 0.0593
vn 0.5857 -0.7850 0.2016
vn 0.1914 -0.5405 0.8193
vn 0.5336 -0.4482 0.7172
vn 0.3181 -0.9163 -0.2433
vn -0.9192 -0.3615 -0.1559
vn -0.9303 0.3352 -0.1489
vn 0.8758 -0.4678 -0.1193
vt 0.335139 0.969113
vt 0.436078 0.947437
vt 0.443287 0.967047
vt 0.939430 0.060148
vt 0.927495 0.096133
vt 0.925716 0.029063
vt 0.011281 0.123399
vt -0.000199 0.077612
vt 0.017579 0.046133
vt 0.810886 0.029751
vt 0.297386 0.685229
vt 0.027122 0.695687
vt 0.014684 0.687600
vt 0.005302 0.689595
vt 0.003442 0.668708
vt 0.009597 0.693918
vt 0.818638 0.614106
vt 0.936576 0.369540
vt 0.937575 0.654936
vt 0.955503 0.651182
vt 0.647357 0.673823
vt 0.620995 0.368578
vt 0.643380 0.261803
vt 0.624191 0.166561
vt 0.638939 0.095532
vt 0.605576 0.483072
vt 0.620108 0.538268
vt 0.606314 0.585528
vt 0.289485 0.391771
vt 0.310307 0.680736
vt 0.296524 0.666440
vt 0.026540 0.663811
vt 0.299180 0.101411
vt 0.284603 0.102949
vt 0.284851 0.042240
vt 0.448063 0.947188
vt 0.431625 0.706245
vt 0.443300 0.692036
vt 0.330341 0.708115
vt 0.334793 0.949307
vt 0.769356 0.063100
vt 0.759874 0.117587
vt 0.753723 0.032457
vt 0.431315 0.688456
vt 0.321437 0.690481
vt 0.782350 0.267087
vt 0.789778 0.654351
vt 0.775802 0.350955
vt 0.767676 0.653094
vt 0.798219 0.654035
vt 0.817733 0.674484
vt 0.938561 0.673510
vt 0.820457 0.680955
vt 0.800424 0.674936
vt -0.001772 0.049579
vt 0.009567 0.018928
vt 0.316516 0.708288
vt 0.321321 0.965120
vt 0.793428 0.162932
vt 0.787695 0.118004
vt 0.793956 0.062833
vt 0.938402 0.967355
vt 0.821317 0.990235
vt 0.819867 0.969584
vt 0.798815 0.700631
vt 0.816482 0.699277
vt 0.813476 0.257997
vt 0.809001 0.093453
vt 0.783742 0.675303
vt 0.787819 0.679797
vt 0.768213 0.681782
vt 0.021703 0.274192
vt 0.287862 0.205319
vt 0.794793 0.674948
vt 0.593920 0.317113
vt 0.327898 0.029492
vt 0.600166 0.025028
vt 0.597200 0.003224
vt 0.928790 0.193080
vt 0.949232 0.255789
vt 0.335047 0.301800
vt 0.315206 0.011698
vt 0.029140 0.008407
vt -0.005170 0.132771
vt -0.001749 0.284327
vt 0.816514 -0.006322
vt 0.924770 -0.002495
vt 0.961601 0.969528
vt 0.936504 0.699159
vt 0.956599 0.697599
vt 0.957687 0.985846
vt 0.940316 0.989792
vt 0.336636 0.573567
vt 0.321805 0.543856
vt 0.316626 0.333153
vt 0.314984 0.487882
vt 0.309763 0.323925
vt 0.304436 0.030921
vt 0.954389 0.672125
vt 0.951946 0.676593
vt 0.938950 0.678739
vt 0.621346 0.320056
vt 0.610690 0.007305
vt 0.633069 0.675607
vt 0.616466 0.024577
vt 0.934967 0.680871
vt 0.815883 0.684542
vt 0.952294 0.683116
vt 0.311168 0.688262
vt 0.297059 0.690486
vt 0.284283 0.011460
vt 0.298488 0.043795
vt 0.314671 0.680831
vt 0.631015 0.007707
vt 0.642687 -0.002702
vt 0.638394 0.033013
vt 0.622100 0.087385
vt 0.752697 0.001152
vt 0.769677 0.035022
vt 0.621883 0.616138
vt 0.606452 0.647716
vt 0.779474 0.140501
vt 0.803858 0.679269
vt 0.613784 0.674897
vt 0.596314 0.685363
vt 0.339289 0.682131
vt 0.339070 0.651246
vt 0.322652 0.649901
vt 0.322882 0.621709
vt 0.802980 0.004071
vt 0.806732 0.988503
vt 0.802876 0.971017
vt 0.801002 0.685972
vt 0.649703 0.684422
vt 0.788307 0.363887
vt 0.304979 0.360464
vt 0.305297 0.205703
vt 0.310004 0.369748
vt 0.597390 -0.001953
vt 0.610063 -0.000876
vt 0.614979 0.004249
vt 0.636555 0.682802
vt 0.325349 0.003147
vt 0.311989 0.004678
vt 0.305579 0.010014
vt 0.966334 0.982880
vt 0.962030 0.988910
s 1
usemtl Material.015
f 54/1/1 1/3/3 40/2/2
f 5/4/4 4/6/6 81/5/5
f 89/7/7 3/9/8 5/8/4
f 81/5/5 4/6/6 55/10/9
f 33/11/10 6/13/12 59/12/11
f 6/13/12 17/15/14 19/14/13
f 6/13/12 19/14/13 61/16/15
f 50/17/16 16/19/18 82/18/17
f 82/18/17 16/19/18 17/20/14
f 79/21/19 21/23/21 20/22/20
f 21/23/21 88/25/23 22/24/22
f 24/26/24 87/28/26 25/27/25
f 75/29/27 31/31/29 32/30/28
f 31/31/29 33/11/10 32/30/28
f 7/32/30 31/31/29 75/29/27
f 38/33/31 36/35/33 92/34/32
f 92/34/32 36/35/33 3/9/8
f 2/36/34 34/38/36 39/37/35
f 66/39/37 41/40/38 39/37/35
f 46/41/39 43/43/41 48/42/40
f 37/44/42 42/45/43 66/39/37
f 23/46/44 47/48/46 71/47/45
f 72/49/47 47/48/46 21/23/21
f 21/23/21 47/48/46 48/42/40
f 51/50/48 49/51/49 50/17/16
f 50/17/16 49/51/49 16/19/18
f 18/52/50 49/51/49 9/53/51
f 49/51/49 51/50/48 52/54/52
f 4/55/6 5/8/4 3/9/8 1/56/3
f 44/57/53 53/58/54 41/40/38
f 69/59/55 57/61/57 15/60/56
f 10/62/58 60/64/60 58/63/59
f 60/64/60 65/66/62 63/65/61
f 67/67/63 90/68/64 69/59/55
f 70/69/65 27/71/67 29/70/66
f 27/71/67 70/69/65 79/21/19
f 47/48/46 72/49/47 71/47/45
f 85/72/68 75/29/27 74/73/69
f 29/70/66 77/74/70 70/69/65
f 26/75/71 76/77/73 84/76/72
f 84/76/72 76/77/73 78/78/74
f 21/23/21 79/21/19 72/49/47
f 67/67/63 82/18/17 80/79/75
f 86/80/76 82/18/17 17/20/14
f 14/81/77 84/76/72 83/82/78
f 1/3/3 2/36/34 40/2/2
f 1/56/3 3/9/8 2/83/34
f 3/9/8 89/7/7 92/34/32
f 81/84/5 86/85/76 89/7/7 5/8/4
f 54/86/1 55/10/9 4/6/6 1/87/3
f 6/13/12 33/11/10 31/31/29 7/32/30
f 8/88/79 28/90/81 30/89/80 10/62/58
f 6/13/12 61/16/15 59/12/11
f 11/91/82 8/88/79 10/62/58 9/92/51
f 12/93/83 24/26/24 26/75/71 14/81/77
f 9/92/51 10/62/58 58/63/59
f 15/94/56 12/93/83 14/81/77 13/95/84
f 24/26/24 12/93/83 87/28/26
f 69/96/55 15/94/56 13/95/84 68/97/85
f 83/82/78 51/98/48 68/97/85 13/95/84
f 13/95/84 14/81/77 83/82/78
f 19/99/13 17/20/14 16/19/18 18/52/50
f 61/100/15 19/99/13 18/52/50 58/101/59
f 23/102/44 77/103/70 76/77/73 26/75/71
f 79/21/19 20/22/20 91/104/86
f 21/23/21 22/24/22 20/22/20
f 25/27/25 23/102/44 26/75/71 24/26/24
f 77/103/70 23/102/44 71/105/45
f 27/106/67 62/107/87 65/66/62 30/89/80
f 29/108/66 27/106/67 30/89/80 28/90/81
f 64/109/88 32/30/28 33/11/10 63/110/61
f 30/89/80 65/66/62 10/62/58
f 36/35/33 38/33/31 35/112/89 34/111/36
f 32/30/28 64/109/88 91/113/86
f 34/114/36 35/116/89 37/115/42
f 38/117/31 22/24/22 88/25/23 35/116/89
f 2/83/34 3/9/8 36/35/33 34/111/36
f 43/43/41 46/41/39 45/119/90 42/118/43
f 34/38/36 37/44/42 39/37/35
f 63/110/61 33/11/10 59/12/11
f 40/2/2 2/36/34 39/37/35
f 40/2/2 39/37/35 41/40/38
f 44/57/53 41/40/38 66/39/37
f 46/120/39 25/27/25 87/28/26 45/121/90
f 48/42/40 23/46/44 25/122/25 46/41/39
f 37/115/42 35/116/89 43/43/41 42/118/43
f 35/116/89 88/25/23 48/42/40 43/43/41
f 11/123/82 9/53/51 49/51/49 52/54/52
f 42/45/43 44/57/53 66/39/37
f 42/124/43 45/121/90 44/125/53
f 21/23/21 48/42/40 88/25/23
f 47/48/46 23/46/44 48/42/40
f 16/19/18 49/51/49 18/52/50
f 44/125/53 45/121/90 56/127/91 53/126/54
f 45/121/90 87/28/26 12/93/83 56/127/91
f 56/127/91 57/129/57 55/128/9 53/126/54
f 53/58/54 54/1/1 41/40/38
f 53/130/54 55/10/9 54/86/1
f 55/10/9 90/68/64 81/5/5
f 12/93/83 15/94/56 57/129/57 56/127/91
f 57/61/57 69/59/55 90/68/64 55/10/9
f 61/131/15 58/63/59 60/64/60 59/132/11
f 59/132/11 60/64/60 63/65/61
f 64/133/88 63/65/61 65/66/62 62/107/87
f 80/79/75 81/5/5 90/68/64 67/67/63
f 65/66/62 60/64/60 10/62/58
f 37/44/42 66/39/37 39/37/35
f 18/52/50 9/53/51 58/101/59
f 41/40/38 54/1/1 40/2/2
f 27/71/67 79/21/19 62/134/87
f 67/67/63 69/59/55 68/135/85
f 68/135/85 51/50/48 50/17/16 67/67/63
f 67/67/63 50/17/16 82/18/17
f 38/33/31 74/73/69 75/29/27 73/136/92
f 72/49/47 70/69/65 71/47/45
f 70/69/65 72/49/47 79/21/19
f 22/137/22 38/33/31 73/136/92 20/138/20
f 32/30/28 91/113/86 20/138/20 73/136/92
f 74/73/69 38/33/31 92/34/32
f 73/136/92 75/29/27 32/30/28
f 77/103/70 29/140/66 28/139/81 78/78/74
f 76/77/73 77/103/70 78/78/74
f 77/103/70 71/105/45 70/141/65
f 64/142/88 62/134/87 79/21/19 91/104/86
f 78/78/74 28/139/81 8/143/79 83/82/78
f 82/18/17 81/5/5 80/79/75
f 82/18/17 86/80/76 81/5/5
f 83/82/78 84/76/72 78/78/74
f 74/73/69 92/34/32 89/7/7 85/72/68
f 84/76/72 14/81/77 26/75/71
f 83/82/78 8/143/79 11/144/82
f 83/82/78 52/145/52 51/98/48
f 83/146/78 11/91/82 52/147/52
f 86/85/76 6/13/12 7/32/30 85/72/68
f 85/72/68 7/32/30 75/29/27
f 6/13/12 86/85/76 17/15/14
f 85/72/68 89/7/7 86/85/76
