# Blender 3.6.5
# www.blender.org
mtllib snowflake.mtl
o Sphere
v -0.005738 0.007797 -0.023128
v 0.000782 -0.013796 -0.020436
v -0.001647 0.023605 -0.003963
v 0.015517 0.018914 -0.008522
v 0.024027 -0.006092 -0.007588
v 0.012160 0.009029 0.019090
v 0.014053 -0.013575 0.015445
v 0.006804 -0.023019 -0.000742
v -0.007313 0.018494 0.015931
v -0.009555 -0.003175 0.022711
v -0.015426 -0.017142 0.011670
v -0.022416 0.011836 0.000803
v -0.019929 -0.004925 -0.013113
v -0.010015 -0.022146 -0.004506
vn 0.4749 0.0337 -0.8794
vn 0.9162 0.0121 0.4006
vn 0.3282 0.8882 0.3216
vn 0.3621 0.8628 0.3529
vn 0.2365 -0.1354 0.9622
vn -0.0270 -0.6129 0.7897
vn 0.0428 -0.8712 0.4891
vn -0.0092 0.2995 0.9541
vn -0.1081 -0.9594 0.2606
vn -0.7382 0.2698 0.6182
vn -0.8694 -0.0247 0.4935
vn -0.4754 0.8752 0.0894
vn -0.9754 -0.2071 0.0752
vn -0.5135 0.7126 -0.4781
vn -0.4117 -0.2341 -0.8807
vn 0.0393 0.7667 -0.6408
vn 0.0510 -0.8983 -0.4363
vn 0.5093 0.1416 -0.8489
vn 0.5055 -0.7117 -0.4879
vn 0.7153 -0.6937 0.0843
vn 0.9194 0.3213 0.2268
vn -0.8356 -0.5376 -0.1132
vn -0.7331 0.3668 -0.5728
vn -0.4824 -0.5977 -0.6403
vt 1.842171 0.850322
vt 0.672791 0.047321
vt 1.569617 -0.390337
vt -0.249464 0.969827
vt -0.138100 -0.390103
vt 1.457882 2.274995
vt -0.992772 1.572392
vt 0.803341 1.471100
vt -0.961401 0.251892
vt -1.287983 -0.534655
vt 0.523469 -1.330528
vt -1.740686 -0.939418
vt -1.742191 1.189349
vt -0.749680 2.369094
vt 2.663119 1.093264
vt 2.363774 0.127470
vt 2.754161 -0.035379
vt 2.248802 -1.094705
s 0
usemtl Material.006
f 1/1/1 5/2/1 2/3/1
f 5/2/2 6/4/2 7/5/2
f 3/6/3 9/7/3 4/8/3
f 4/8/4 9/7/4 6/4/4
f 6/4/5 10/9/5 7/5/5
f 7/5/6 10/9/6 11/10/6
f 7/5/7 11/10/7 8/11/7
f 6/4/8 9/7/8 10/9/8
f 11/10/9 14/12/9 8/11/9
f 10/9/10 9/7/10 12/13/10
f 12/13/11 11/10/11 10/9/11
f 9/7/12 3/14/12 12/13/12
f 12/15/13 13/16/13 11/17/13
f 3/6/14 1/1/14 12/15/14
f 1/1/15 2/3/15 13/16/15
f 1/1/16 3/6/16 4/8/16
f 14/18/17 2/3/17 8/11/17
f 1/1/18 4/8/18 5/2/18
f 2/3/19 5/2/19 8/11/19
f 8/11/20 5/2/20 7/5/20
f 5/2/21 4/8/21 6/4/21
f 14/18/22 11/17/22 13/16/22
f 13/16/23 12/15/23 1/1/23
f 13/16/24 2/3/24 14/18/24
